<?xml version="1.0" standalone="no"?>
<!DOCTYPE svg PUBLIC "-//W3C//DTD SVG 20010904//EN"
 "http://www.w3.org/TR/2001/REC-SVG-20010904/DTD/svg10.dtd">
<svg version="1.0" xmlns="http://www.w3.org/2000/svg"
 width="496.000000pt" height="496.000000pt" viewBox="0 0 496.000000 496.000000"
 preserveAspectRatio="xMidYMid meet">
<metadata>
Created by potrace 1.14, written by Peter Selinger 2001-2017
</metadata>
<g transform="translate(0.000000,496.000000) scale(0.100000,-0.100000)"
fill="#000000" stroke="none">
<path d="M2320 4425 c-220 -46 -409 -132 -585 -265 -57 -43 -227 -225 -271
-290 -119 -174 -201 -372 -229 -550 -3 -19 -8 -48 -12 -65 -9 -43 -11 -260 -2
-314 4 -25 10 -67 13 -93 4 -26 9 -53 11 -60 2 -7 6 -24 9 -38 8 -47 57 -183
96 -264 85 -179 221 -350 377 -477 84 -69 272 -176 363 -209 19 -6 44 -16 55
-20 30 -12 140 -40 174 -45 17 -2 39 -6 50 -10 47 -14 309 -22 386 -11 291 44
558 170 766 364 366 343 515 849 393 1342 -15 58 -30 110 -34 115 -4 6 -13 28
-20 50 -7 22 -28 71 -47 109 -115 230 -302 429 -538 573 -81 50 -240 114 -350
142 -132 32 -143 34 -325 36 -148 2 -191 -1 -280 -20z"/>
<path d="M1098 1308 c-155 -20 -252 -135 -252 -298 1 -251 299 -373 499 -205
l30 25 -48 47 c-41 39 -52 45 -65 35 -69 -49 -123 -60 -181 -36 -128 51 -113
259 22 301 40 12 102 -3 143 -36 l27 -22 31 28 c71 64 68 58 38 88 -59 59
-148 86 -244 73z"/>
<path d="M1492 1300 c-4 -3 -7 -131 -7 -285 l0 -280 40 -5 c22 -3 56 -3 76 -2
l35 4 0 76 -1 77 36 3 c35 3 38 1 87 -77 l51 -79 77 -4 c51 -2 78 1 81 9 4 10
-31 70 -90 157 -17 24 -18 31 -6 34 8 3 30 22 50 43 99 102 34 292 -111 325
-40 9 -307 12 -318 4z m298 -148 c13 -11 22 -30 23 -51 3 -50 -33 -73 -114
-74 l-64 -1 0 65 c-1 35 1 67 3 72 2 4 32 7 66 7 46 0 70 -5 86 -18z"/>
<path d="M2149 1306 c-1 -1 -2 -130 -3 -288 -1 -195 1 -288 9 -289 11 -1 104
-1 121 0 8 1 11 85 10 288 l-1 287 -67 1 c-38 1 -69 1 -69 1z"/>
<path d="M2647 1290 c-55 -21 -111 -75 -147 -140 -21 -38 -25 -58 -25 -130 0
-70 4 -94 24 -134 64 -129 202 -187 351 -146 45 12 125 64 134 87 3 7 -14 31
-37 53 -40 38 -67 50 -67 31 0 -5 -21 -19 -46 -31 -130 -63 -251 56 -203 201
34 99 164 130 244 58 19 -17 21 -17 67 27 l47 44 -27 26 c-15 14 -49 37 -77
50 -63 30 -167 32 -238 4z"/>
<path d="M3290 1300 c-5 -3 -43 -84 -85 -180 -77 -177 -82 -188 -129 -293 -37
-83 -38 -101 -3 -100 15 1 47 1 72 2 l46 1 25 58 25 57 97 -1 c53 -1 102 -2
107 -3 6 -1 21 -26 34 -56 l25 -55 78 0 78 0 -14 33 c-75 176 -200 461 -218
497 -23 45 -23 45 -76 45 -29 0 -57 -2 -62 -5z m85 -257 c16 -35 22 -59 15
-63 -8 -5 -61 -6 -94 -1 -4 0 -2 11 6 24 8 12 20 39 27 60 7 20 15 37 17 37 2
0 16 -26 29 -57z"/>
<path d="M3762 1018 c0 -321 -8 -290 68 -290 83 0 77 -5 76 73 -1 38 1 74 4
78 3 5 43 10 90 12 98 5 148 25 193 81 42 52 49 146 17 212 -24 51 -70 91
-121 107 -19 6 -100 12 -181 13 l-146 2 0 -288z m292 131 c19 -15 26 -30 26
-53 0 -49 -27 -68 -105 -73 -72 -6 -66 -13 -67 77 -1 73 -3 70 61 70 44 0 65
-5 85 -21z"/>
</g>
</svg>
