<svg viewBox="0 0 512 512" xml:space="preserve" xmlns="http://www.w3.org/2000/svg" enable-background="new 0 0 512 512"><path d="M89.425 350.087a18.512 18.512 0 0 0-5.459 13.18c0 4.979 1.938 9.659 5.459 13.179l46.129 46.131a18.515 18.515 0 0 0 13.18 5.459c4.979 0 9.66-1.938 13.18-5.459l184.518-184.519-72.489-72.489L89.425 350.087zm209.335-105.44L152.262 391.146a4.66 4.66 0 0 1-6.59 0l-26.359-26.359a4.66 4.66 0 0 1 0-6.59l146.499-146.499a4.66 4.66 0 0 1 6.59 0l26.359 26.359a4.66 4.66 0 0 1-.001 6.59zM139.78 187.613c28.264 0 51.258-22.994 51.258-51.258s-22.994-51.257-51.258-51.257-51.258 22.993-51.258 51.257 22.994 51.258 51.258 51.258z" fill="#efefef" class="fill-000000"></path><path d="m148.966 381.264-19.769-19.769 139.908-139.908 19.769 19.77zM395.09 83.96l32.949 32.95-94.783 94.782-32.95-32.95z" fill="#efefef" class="fill-000000"></path></svg>