<svg width="11" height="11" viewBox="0 0 11 11" fill="none" xmlns="http://www.w3.org/2000/svg">
<path d="M1 5.74999C0.999095 6.37365 1.12133 6.99136 1.3597 7.56767C1.59806 8.14398 1.94787 8.66756 2.38905 9.10837C2.83037 9.54975 3.35435 9.89984 3.93104 10.1386C4.50772 10.3774 5.12581 10.5002 5.74998 10.5C6.42177 10.5016 7.08617 10.3598 7.69875 10.084L9.68449 10.3778C9.78309 10.3939 9.88412 10.3857 9.97882 10.3538C10.0735 10.322 10.159 10.2676 10.2279 10.1952C10.2968 10.1228 10.3469 10.0348 10.374 9.9386C10.4011 9.84244 10.4043 9.74113 10.3834 9.64345L10.1076 7.62894C10.3693 7.03725 10.503 6.39695 10.4999 5.74999C10.5008 5.12634 10.3785 4.50865 10.1402 3.93235C9.90182 3.35605 9.55204 2.83246 9.1109 2.39162C8.6696 1.95021 8.14562 1.60011 7.56893 1.36133C6.99224 1.12254 6.37415 0.999763 5.74998 1C4.48951 1.00008 3.28064 1.50063 2.38905 2.39162C1.9481 2.8326 1.59844 3.35621 1.36009 3.93248C1.12174 4.50875 0.999375 5.12637 1 5.74999Z" stroke="black" stroke-linecap="round" stroke-linejoin="round"/>
</svg>
