<svg width="34" height="34" viewBox="0 0 34 34" fill="none" xmlns="http://www.w3.org/2000/svg">
<circle cx="17.4561" cy="16.5439" r="16.5439" fill="#439B45"/>
<path d="M17.4561 9.04395H11.6227C11.1807 9.04395 10.7568 9.21954 10.4442 9.5321C10.1316 9.84466 9.95605 10.2686 9.95605 10.7106V22.3773C9.95605 22.8193 10.1316 23.2432 10.4442 23.5558C10.7568 23.8683 11.1807 24.0439 11.6227 24.0439H23.2894C23.7314 24.0439 24.1553 23.8683 24.4679 23.5558C24.7805 23.2432 24.9561 22.8193 24.9561 22.3773V16.5439" stroke="white" stroke-width="2" stroke-linecap="round" stroke-linejoin="round"/>
<path d="M22.7685 8.73163C23.1001 8.40011 23.5497 8.21387 24.0185 8.21387C24.4874 8.21387 24.937 8.40011 25.2685 8.73163C25.6001 9.06315 25.7863 9.51279 25.7863 9.98163C25.7863 10.4505 25.6001 10.9001 25.2685 11.2316L17.456 19.0441L14.1227 19.8775L14.956 16.5441L22.7685 8.73163Z" stroke="white" stroke-width="2" stroke-linecap="round" stroke-linejoin="round"/>
</svg>
