<svg width="12" height="10" viewBox="0 0 12 10" fill="none" xmlns="http://www.w3.org/2000/svg">
<path d="M8.67857 0C7.57232 0 6.60375 0.462609 6 1.24456C5.39625 0.462609 4.42768 0 3.32143 0C2.44084 0.000965195 1.59659 0.34157 0.97392 0.94709C0.351247 1.55261 0.000992538 2.37359 0 3.22993C0 6.87662 5.56018 9.82836 5.79696 9.95026C5.85937 9.98291 5.92913 10 6 10C6.07087 10 6.14063 9.98291 6.20304 9.95026C6.43982 9.82836 12 6.87662 12 3.22993C11.999 2.37359 11.6488 1.55261 11.0261 0.94709C10.4034 0.34157 9.55917 0.000965195 8.67857 0ZM6 9.10631C5.02179 8.55202 0.857143 6.02694 0.857143 3.22993C0.857993 2.59462 1.1179 1.98556 1.57985 1.53633C2.04181 1.0871 2.66812 0.834357 3.32143 0.83353C4.36339 0.83353 5.23821 1.37324 5.60357 2.24011C5.63586 2.31655 5.69079 2.38193 5.76138 2.42794C5.83196 2.47395 5.91502 2.49852 6 2.49852C6.08498 2.49852 6.16804 2.47395 6.23863 2.42794C6.30921 2.38193 6.36414 2.31655 6.39643 2.24011C6.76179 1.37168 7.63661 0.83353 8.67857 0.83353C9.33188 0.834357 9.95819 1.0871 10.4201 1.53633C10.8821 1.98556 11.142 2.59462 11.1429 3.22993C11.1429 6.02277 6.97714 8.5515 6 9.10631Z" fill="black"/>
</svg>
