<svg width="21" height="21" viewBox="0 0 21 21" fill="none" xmlns="http://www.w3.org/2000/svg">
<path d="M5.0946 6.91699C5.0946 5.59091 5.62139 4.31914 6.55907 3.38146C7.49675 2.44378 8.76852 1.91699 10.0946 1.91699C11.4207 1.91699 12.6925 2.44378 13.6301 3.38146C14.5678 4.31914 15.0946 5.59091 15.0946 6.91699C15.0946 12.7503 17.5946 14.417 17.5946 14.417H2.5946C2.5946 14.417 5.0946 12.7503 5.0946 6.91699Z" stroke="black" stroke-width="1.66667" stroke-linecap="round" stroke-linejoin="round"/>
<path d="M8.67795 17.75C8.81743 18.0037 9.02249 18.2153 9.27169 18.3627C9.52089 18.51 9.8051 18.5878 10.0946 18.5878C10.3841 18.5878 10.6683 18.51 10.9175 18.3627C11.1667 18.2153 11.3718 18.0037 11.5113 17.75" stroke="black" stroke-width="1.66667" stroke-linecap="round" stroke-linejoin="round"/>
</svg>
